<?xml version="1.0" encoding="UTF-8" standalone="no"?>
<!DOCTYPE svg PUBLIC "-//W3C//DTD SVG 1.1//EN" "http://www.w3.org/Graphics/SVG/1.1/DTD/svg11.dtd">
<svg width="100%" height="100%" viewBox="0 0 8169 1170" version="1.1" xmlns="http://www.w3.org/2000/svg" xmlns:xlink="http://www.w3.org/1999/xlink" xml:space="preserve" xmlns:serif="http://www.serif.com/" style="fill-rule:evenodd;clip-rule:evenodd;stroke-linejoin:round;stroke-miterlimit:2;"><g transform="matrix(0.94734,0,0,0.94734,124.629,-3.26513)"><path d="M2865.99,1038.28c-8.44,-7.15 -16.3,-14.9 -23.59,-23.2c-6.63,-7.6 -6.21,-19.201 0.96,-26.277l90.13,-88.791c6.89,-6.923 18.11,-7.422 25.7,-1.151c15.98,13.424 31.13,27.366 45.45,41.807c130.79,131.362 310.1,159.172 488.45,102.792c86.68,-27.23 158.4,-79.971 168.56,-175.282c19.76,-184.102 -182.76,-191.197 -321.79,-192.54c-211.91,-1.918 -496.5,-57.148 -457.76,-344.423c25.12,-186.211 201.74,-309.521 381.63,-324.863c196.62,-16.742 367.11,38.872 511.45,166.842c7.73,6.923 8.58,18.89 1.92,26.848l-84.19,99.338c-3.64,4.258 -8.97,6.693 -14.55,6.693c-4.66,-0 -9.17,-1.687 -12.68,-4.775c-136.79,-119.033 -287.33,-156.294 -451.62,-111.803c-116.98,31.642 -217.66,222.072 -65.2,288.809c22.76,9.972 65.14,17.202 127.14,21.67c206.73,14.767 524.88,6.137 559.59,279.988c63.67,503.598 -657.01,578.198 -931.05,293.218c-8.06,-8.19 -20.91,-19.81 -38.55,-34.9Z" style="fill-rule:nonzero;"/></g><g transform="matrix(0.941755,0,0,0.941755,439.725,6.88131e-05)"><path d="M8206.63,649.005c-14.86,340.415 -314.74,607.995 -664.32,592.735c-349.56,-15.27 -624.99,-307.953 -610.12,-648.387c14.86,-340.416 314.73,-607.996 664.32,-592.731c349.56,15.265 624.98,307.948 610.12,648.383Zm-172.94,-41.02c-6.83,-244.913 -222.47,-440.598 -477.71,-433.464c-255.23,7.134 -459.62,214.536 -452.77,459.468c6.83,244.913 222.48,440.601 477.7,433.461c255.24,-7.13 459.63,-214.533 452.78,-459.465Z" style="fill-rule:nonzero;"/></g><g transform="matrix(0.990417,0,0,0.990417,-9.65472e-05,-34.9719)"><path d="M291.065,453.186l-1.726,744.264l0,0.1c-0.058,10.53 -8.668,19.14 -19.081,19.08l-0.096,0l-129.447,-1.15c-10.413,0 -18.985,-8.65 -18.985,-19.18l0,-990.884c0,-4.468 -1.554,-8.802 -4.411,-12.274l-109.119,-131.172c-13.941,-16.627 -10.106,-24.988 11.507,-25.122l181.608,-1.534c5.696,-0.115 11.2,2.435 14.959,6.904l462.171,555.948c3.644,4.392 9.052,6.923 14.748,6.923c5.619,0 10.95,-2.455 14.594,-6.731l471.763,-556.332c3.78,-4.258 9.22,-6.693 14.96,-6.712l178.15,1.534c21.23,0.134 25.18,8.438 11.89,24.93l-107.97,133.858c-2.72,3.356 -4.21,7.613 -4.21,12.081l-0,988.973c-0,10.53 -8.65,19.18 -19.18,19.18l-129.45,0c-10.62,0 -19.37,-8.65 -19.37,-19.18l0.19,-745.613c-0,-35.152 -11.25,-39.314 -33.75,-12.466l-360.914,429.571c-3.682,4.334 -9.09,6.827 -14.766,6.827c-5.677,0 -11.085,-2.493 -14.767,-6.827l-355.354,-427.269c-22.63,-26.983 -33.944,-22.879 -33.944,12.273Z" style="fill-rule:nonzero;"/></g><g transform="matrix(0.991866,0,0,0.991866,-36.3493,-36.1684)"><path d="M1891.02,1047.3l690.19,1.15c10.53,0 19.18,8.65 19.18,19.18l0,129.06c0,10.41 -8.65,18.99 -19.18,18.99l-862.98,0.38c-10.53,-0 -19.17,-8.65 -19.17,-19.18l0,-1141.24c0,-10.529 8.64,-19.178 19.17,-19.178l795.86,-0c10.53,-0 19.18,8.649 19.18,19.178l0,129.254c0,10.529 -8.65,19.178 -19.18,19.178l-624.03,0.575c-10.53,0 -19.18,8.649 -19.18,19.177l0.58,312.397c0.04,10.49 8.69,19.101 19.18,19.101c2.14,0 4.29,-0.364 6.33,-1.074c9.97,-3.452 19.61,-7.095 28.95,-10.931c16.49,-7.038 31.84,-11.257 46.03,-12.657c120.43,-11.756 241.11,-14.44 362.06,-8.054c10.13,0.517 18.15,9.051 18.03,19.177l-0.57,134.432c-0,10.279 -8.33,18.775 -18.61,18.986c-130.54,3.701 -215.55,5.044 -255.05,4.027c-73.4,-1.918 -138.85,12.024 -196.38,41.807c-6.37,3.298 -10.37,9.895 -10.35,17.067l0.76,270.015c0.1,10.49 8.69,19.08 19.18,19.18Z" style="fill-rule:nonzero;"/></g><g transform="matrix(0.991386,0,0,0.991386,56.6232,-36.1499)"><path d="M4604.41,210.786l0,999.324c0,3.59 -2.93,6.52 -6.52,6.52l-154.76,-1.15c-3.59,0 -6.52,-2.93 -6.52,-6.52l0,-998.174c0,-3.587 -2.93,-6.521 -6.52,-6.521l-413.66,-0c-3.58,-0 -6.52,-2.934 -6.52,-6.52l0,-154.76c0,-3.587 2.94,-6.521 6.52,-6.521l998.56,-0c3.59,-0 6.53,2.934 6.53,6.521l0,154.76c0,3.586 -2.94,6.52 -6.53,6.52l-404.06,-0c-3.59,-0 -6.52,2.934 -6.52,6.521Z" style="fill-rule:nonzero;"/></g><g transform="matrix(0.991063,0,0,0.991063,66.9134,-35.5682)"><path d="M5453.2,36.963c0,-0.595 -0.48,-1.074 -1.07,-1.074l-165.85,0c-0.59,0 -1.07,0.479 -1.07,1.074l0,1178.4c0,0.6 0.48,1.08 1.07,1.08l165.85,0c0.59,0 1.07,-0.48 1.07,-1.08l0,-1178.4Z"/></g><g transform="matrix(0.991703,0,0,0.991703,38.8375,-35.7816)"><path d="M5789.37,198.32l-2.3,-156.294c0,-3.26 2.68,-5.945 5.94,-5.945l858.19,0.575c3.26,0 5.94,2.685 5.94,5.945l-2.11,158.404c-0.02,1.323 -0.5,2.608 -1.34,3.644l-683.86,833.631c-0.9,1.08 -1.4,2.44 -1.4,3.84c0,3.26 2.68,5.94 5.94,5.94l733.4,0c3.26,0 5.94,2.69 5.94,5.95l0.77,155.91c0,3.26 -2.68,5.95 -5.94,5.95l-952.35,-0c-3.26,-0 -5.94,-2.69 -5.94,-5.95l0,-164.35c0.02,-1.32 0.5,-2.61 1.34,-3.64l663.15,-828.076c0.81,-1.036 1.25,-2.321 1.25,-3.644c0,-3.26 -2.69,-5.945 -5.95,-5.945l-614.72,-0c-3.26,-0 -5.95,-2.685 -5.95,-5.945Z" style="fill-rule:nonzero;"/></g></svg>
